<?xml version="1.0" standalone="no"?>
<!DOCTYPE svg PUBLIC "-//W3C//DTD SVG 20010904//EN"
 "http://www.w3.org/TR/2001/REC-SVG-20010904/DTD/svg10.dtd">
<svg version="1.0" xmlns="http://www.w3.org/2000/svg"
 width="1024.000000pt" height="1024.000000pt" viewBox="0 0 1024.000000 1024.000000"
 preserveAspectRatio="xMidYMid meet">

<g transform="translate(0.000000,1024.000000) scale(0.100000,-0.100000)"
fill="#000000" stroke="none">
<path d="M4210 7655 c-169 -23 -281 -59 -377 -121 -220 -141 -328 -372 -308
-659 4 -55 22 -187 41 -294 31 -174 39 -202 76 -275 58 -111 165 -219 268
-269 125 -61 179 -70 375 -64 96 4 201 13 240 22 174 39 304 100 332 155 14
27 17 666 5 833 -9 113 -23 127 -119 127 l-65 0 6 33 c3 17 8 55 10 82 3 28
13 116 22 198 22 198 20 201 -161 226 -125 18 -248 20 -345 6z m373 -71 c69
-13 87 -20 87 -33 0 -24 -29 -253 -32 -257 -2 -1 -26 2 -53 7 -79 16 -283 15
-345 0 -128 -32 -210 -92 -251 -184 -21 -46 -24 -67 -24 -177 0 -145 16 -208
70 -291 73 -109 177 -157 314 -145 131 11 121 -1 121 142 l0 124 -108 -6 -109
-7 -10 124 c-5 68 -8 125 -7 127 3 6 554 45 559 40 7 -7 24 -661 18 -671 -10
-17 -148 -79 -230 -102 -320 -94 -615 -59 -783 92 -127 114 -203 291 -217 506
-14 228 67 443 214 562 180 147 478 203 786 149z m-394 -766 c7 -90 15 -183
18 -207 l6 -44 -33 19 c-49 29 -107 100 -130 160 -25 68 -25 100 0 141 20 33
94 93 115 93 8 0 15 -52 24 -162z"/>
<path d="M5031 7651 c-11 -11 -23 -31 -25 -43 -7 -29 -26 -1039 -26 -1324 0
-277 -17 -256 206 -266 190 -8 219 -5 238 25 12 18 36 339 36 466 l0 24 127
-7 c70 -3 129 -9 132 -12 3 -2 -1 -78 -7 -167 -7 -89 -12 -196 -12 -238 0
-105 6 -110 162 -121 67 -5 151 -8 186 -6 56 3 67 6 83 28 14 20 27 119 68
540 28 283 63 626 77 763 26 262 25 275 -19 298 -27 15 -374 39 -404 28 -43
-16 -51 -45 -63 -224 -6 -93 -13 -189 -16 -212 l-5 -43 -68 0 c-37 0 -102 3
-143 6 l-75 7 5 226 c6 291 29 265 -238 269 -189 3 -200 2 -219 -17z m391
-292 l-3 -246 143 -6 c79 -4 171 -7 204 -7 l61 0 7 68 c3 37 11 144 17 237 6
94 14 173 18 177 10 11 345 -13 358 -26 8 -8 5 -70 -13 -256 -68 -694 -106
-1065 -108 -1068 -2 -1 -78 3 -170 9 l-166 12 0 36 c0 35 26 394 34 463 5 46
9 45 -220 54 l-171 6 -7 -138 c-3 -77 -9 -199 -12 -271 l-6 -133 -98 0 c-53 0
-132 3 -175 7 l-78 6 7 371 c3 204 9 503 13 664 l6 292 181 -2 181 -3 -3 -246z"/>
<path d="M6479 7580 c-9 -5 -21 -22 -27 -37 -18 -45 -175 -1261 -187 -1444
-10 -152 -43 -136 447 -215 232 -38 417 -64 432 -60 35 9 41 23 98 225 79 282
79 281 66 305 -14 26 -38 45 -58 46 -39 1 -41 14 -14 106 22 74 46 170 79 311
3 15 14 23 33 25 25 3 30 11 64 113 20 61 37 117 37 126 1 8 17 74 36 145 20
71 33 139 30 151 -12 50 -30 54 -692 168 -271 46 -317 51 -344 35z m262 -80
c299 -49 703 -123 711 -130 13 -10 -66 -265 -83 -267 -8 -2 -131 19 -274 45
l-260 48 -12 -60 c-6 -34 -15 -88 -18 -122 l-7 -60 139 -27 c76 -14 180 -34
231 -43 65 -12 92 -21 92 -31 0 -29 -63 -233 -72 -233 -5 0 -104 16 -220 35
-116 20 -213 34 -215 32 -4 -4 -42 -240 -39 -244 0 0 123 -24 271 -53 149 -29
271 -53 273 -55 3 -2 -67 -258 -73 -263 -1 -1 -112 17 -246 42 -134 24 -326
57 -426 72 l-181 27 4 31 c2 17 29 227 59 466 53 412 99 748 110 798 7 29 13
28 236 -8z"/>
<path d="M3050 7464 c-85 -19 -165 -39 -177 -45 -49 -26 -49 -47 12 -325 135
-623 237 -1095 251 -1164 24 -122 39 -127 263 -84 109 20 141 30 160 49 l25
24 -13 98 c-20 149 -87 525 -197 1093 -70 364 -68 357 -104 375 -37 19 -35 19
-220 -21z m256 -335 c34 -167 85 -430 113 -584 29 -154 58 -310 65 -347 7 -38
12 -68 12 -68 -65 -16 -323 -56 -327 -52 -4 4 -21 77 -39 162 -17 85 -79 373
-136 639 -57 266 -103 486 -101 487 6 6 331 72 342 70 5 -2 38 -140 71 -307z"/>
<path d="M7671 7353 c-30 -25 -138 -447 -280 -1093 -93 -422 -96 -440 -62
-473 18 -19 276 -87 327 -87 46 0 67 37 113 198 25 83 48 152 52 152 18 0 44
-88 61 -214 22 -153 42 -207 86 -230 40 -20 315 -106 341 -106 35 0 67 41 91
120 13 41 32 94 43 118 23 54 20 77 -27 225 l-34 108 37 23 c53 34 126 118
155 179 70 150 166 438 166 501 0 37 -27 142 -47 181 -48 94 -168 189 -312
244 -91 35 -614 171 -658 171 -17 0 -40 -8 -52 -17z m305 -103 c131 -32 275
-71 319 -85 286 -94 416 -260 371 -475 -42 -204 -188 -365 -348 -386 -26 -4
-48 -11 -48 -16 0 -13 56 -233 91 -357 27 -98 36 -161 24 -173 -3 -3 -88 20
-188 51 l-182 57 -36 217 c-20 119 -39 223 -42 230 -7 18 -98 41 -107 26 -4
-6 -29 -95 -55 -197 -27 -103 -49 -188 -50 -190 -3 -4 -315 75 -321 80 -11 12
258 1144 301 1266 2 6 10 12 18 12 7 0 121 -27 253 -60z"/>
<path d="M7952 6804 c-29 -97 -49 -180 -47 -184 3 -5 47 -18 97 -30 148 -35
207 -15 258 86 70 142 17 232 -166 278 -34 9 -68 18 -76 21 -12 5 -25 -31 -66
-171z m79 -136 c40 -22 53 -44 22 -34 -10 3 -30 8 -45 12 -18 4 -28 13 -28 25
0 24 4 24 51 -3z"/>
<path d="M2405 7310 c-136 -39 -175 -54 -192 -75 -13 -14 -23 -34 -23 -43 0
-9 29 -111 65 -227 35 -115 63 -210 62 -210 -16 -9 -290 -85 -293 -82 -3 2
-32 94 -65 203 -34 109 -67 209 -74 220 -26 41 -57 38 -239 -22 -94 -31 -181
-66 -193 -77 -14 -12 -23 -32 -23 -49 0 -16 68 -223 151 -461 83 -237 193
-556 245 -707 98 -286 111 -310 163 -310 14 0 88 21 163 46 149 49 178 70 178
126 0 31 -28 141 -81 322 -16 55 -28 100 -27 101 9 8 261 75 265 71 3 -3 31
-94 63 -203 70 -241 65 -229 99 -243 24 -9 51 -5 181 29 159 42 200 64 200
106 0 56 -132 615 -276 1165 -72 274 -89 329 -110 348 -14 12 -35 22 -47 21
-12 0 -98 -22 -192 -49z m266 -246 c64 -230 259 -1012 259 -1037 0 -11 -45
-26 -160 -54 -88 -21 -160 -39 -160 -39 0 7 -140 489 -142 491 -3 3 -374 -101
-387 -109 -4 -3 25 -114 65 -247 41 -132 74 -244 74 -248 0 -12 -302 -103
-310 -94 -4 4 -26 62 -48 128 -22 66 -115 335 -206 597 -91 263 -166 484 -166
491 0 17 332 128 341 115 3 -5 37 -110 75 -234 45 -147 73 -224 82 -224 12 0
393 110 401 116 2 2 -29 109 -69 239 -40 131 -68 240 -64 245 15 13 338 98
347 91 4 -4 35 -106 68 -227z"/>
<path d="M5052 5871 c-8 -5 -41 -140 -82 -336 -38 -180 -71 -329 -72 -331 -2
-2 -37 140 -77 314 -48 211 -78 323 -90 335 -16 17 -30 17 -181 10 -139 -7
-164 -11 -174 -26 -9 -14 23 -119 163 -535 96 -284 180 -527 188 -539 13 -22
19 -23 153 -23 107 0 142 3 153 14 16 16 19 29 107 366 32 124 60 218 63 210
3 -8 33 -139 67 -290 35 -157 68 -280 76 -286 8 -6 75 -14 151 -18 124 -7 138
-6 153 11 20 21 380 1037 380 1071 0 32 -25 38 -191 46 -113 5 -148 4 -157 -6
-5 -7 -47 -152 -92 -323 -94 -356 -92 -349 -98 -315 -28 168 -124 635 -133
646 -9 11 -43 14 -153 14 -77 0 -147 -4 -154 -9z"/>
<path d="M6140 5818 c-10 -23 -120 -991 -120 -1054 0 -26 5 -37 23 -43 34 -14
663 -105 680 -98 15 5 33 84 44 193 5 45 3 53 -13 58 -11 3 -104 20 -209 37
-104 17 -191 32 -193 33 -2 3 18 159 22 163 1 1 71 -9 156 -23 85 -14 166 -23
180 -22 24 3 26 9 42 113 14 88 15 112 5 122 -7 7 -87 25 -177 39 -91 15 -168
30 -171 33 -10 9 15 166 26 164 353 -56 418 -64 428 -54 12 12 36 145 36 203
1 27 -4 38 -16 42 -17 5 -208 36 -561 91 -90 14 -166 25 -168 25 -2 0 -9 -10
-14 -22z"/>
<path d="M3704 5786 c-222 -58 -349 -174 -399 -366 -24 -91 -16 -288 15 -380
92 -272 286 -406 559 -387 237 18 391 107 474 277 142 289 49 679 -195 819
-117 66 -286 80 -454 37z m231 -265 c77 -35 135 -131 156 -257 31 -192 -49
-333 -199 -351 -146 -17 -257 114 -269 318 -9 146 37 247 132 290 51 24 129
24 180 0z"/>
<path d="M7062 5677 c-9 -10 -55 -241 -177 -893 -28 -145 -30 -180 -14 -190
17 -10 210 -54 240 -54 15 0 31 6 37 13 5 6 25 81 44 166 19 85 39 156 45 158
5 2 20 -4 32 -14 17 -14 30 -54 60 -192 22 -95 44 -178 49 -183 14 -14 265
-78 284 -72 33 10 29 45 -21 228 -28 101 -51 189 -51 195 0 6 11 11 23 11 46
0 146 60 187 111 59 74 82 146 88 265 4 88 1 107 -18 152 -39 90 -142 169
-270 205 -70 20 -484 107 -509 107 -10 0 -23 -6 -29 -13z m361 -306 c108 -26
127 -45 127 -130 0 -84 -22 -129 -73 -154 -36 -18 -41 -18 -115 -2 -42 9 -80
20 -84 23 -4 4 -1 34 7 67 7 33 21 95 30 138 9 42 20 77 24 77 3 0 41 -9 84
-19z"/>
<path d="M2580 5536 c-131 -35 -140 -40 -140 -67 0 -17 238 -865 276 -981 8
-26 23 -49 32 -52 24 -8 620 148 638 166 13 13 12 28 -12 122 -17 69 -32 110
-42 114 -9 3 -94 -14 -189 -37 -96 -24 -175 -42 -177 -40 -2 2 -45 177 -96
389 -51 212 -96 393 -102 403 -12 24 -52 21 -188 -17z"/>
<path d="M5711 4565 c-71 -20 -110 -45 -165 -106 -90 -100 -111 -238 -54 -361
l26 -57 -56 -12 c-110 -22 -194 -87 -238 -183 -73 -161 -8 -351 150 -434 44
-23 63 -27 141 -27 99 0 134 12 193 68 l32 31 -6 -34 c-24 -140 -76 -270 -139
-353 -20 -26 -33 -51 -30 -57 7 -12 473 -12 480 1 4 5 -14 35 -38 67 -59 75
-111 181 -142 288 -14 47 -25 88 -25 91 0 3 16 -9 35 -26 70 -61 111 -76 210
-76 78 0 97 4 140 27 62 33 118 90 143 146 l19 43 229 -293 c126 -161 242
-310 257 -331 20 -28 34 -37 50 -35 26 4 577 702 577 732 0 20 -544 724 -567
733 -7 3 -20 -1 -29 -8 -8 -7 -126 -154 -262 -326 l-246 -313 -12 40 c-37 124
-140 215 -260 227 -52 6 -66 15 -43 29 27 17 52 100 53 179 1 67 -3 89 -25
135 -76 158 -240 239 -398 195z m1464 -565 c131 -168 242 -310 247 -316 5 -7
-83 -127 -238 -325 -135 -173 -249 -318 -254 -322 -4 -5 -50 45 -102 110 -259
326 -409 525 -405 536 2 7 85 113 182 237 98 124 210 265 248 313 38 49 73 85
77 80 4 -4 114 -145 245 -313z"/>
<path d="M3185 4288 c-200 -161 -379 -356 -457 -496 -125 -225 -71 -495 116
-587 113 -55 239 -40 321 39 25 23 45 40 45 37 0 -3 -6 -29 -14 -56 -19 -72
-51 -140 -92 -197 -19 -27 -33 -55 -31 -61 4 -12 400 -18 418 -6 7 4 -3 25
-24 55 -48 68 -73 120 -91 191 -22 85 -21 88 24 44 50 -49 113 -71 199 -71 84
0 150 30 209 94 144 157 128 400 -42 627 -78 104 -256 276 -392 381 l-101 77
-88 -71z"/>
<path d="M4155 4346 c-57 -18 -82 -33 -133 -80 -90 -82 -129 -181 -119 -301
13 -151 84 -293 238 -477 150 -179 404 -449 420 -446 16 3 253 261 407 443
169 201 243 357 243 514 0 120 -46 215 -143 291 -130 104 -324 90 -462 -31
l-46 -41 -38 34 c-104 94 -249 131 -367 94z m223 -81 c30 -14 82 -52 116 -85
35 -33 65 -60 68 -60 4 0 35 29 70 63 76 77 145 107 241 107 112 -1 196 -57
248 -165 65 -136 23 -300 -129 -499 -70 -93 -299 -362 -372 -440 l-66 -69
-136 154 c-335 378 -423 509 -448 667 -23 137 50 277 174 333 62 28 166 26
234 -6z"/>
</g>
</svg>
